# xmcd CD database file
#
# Track frame offsets:
#	150
#	15131
#	43176
#	71381
#	94936
#	120582
#	143697
#
# Disc length: 2301 seconds
#
# Revision: 0
# Processed by: cddbd v1.5.1PL0 Copyright (c) Steve Scherf et al.
# Submitted via: CdAid (MTCDDB.DLL V2003.12.21)
#
DISCID=5108fb07
DTITLE=Superfunk - Promised Land
DYEAR=2004
DGENRE=R&B
TTITLE0=Promised Land (Radio Edit)
TTITLE1=Promised Land (Club Extended)
TTITLE2=Promised Land (Electrocompressor Remix)
TTITLE3=Promised Land (Everstyle Vs. Mike 303)
TTITLE4=Promised Land (Stephane B Tribal Computer Remix)
TTITLE5=Promised Land (Everstyle Vs. Player Remix)
TTITLE6=Promised Land (Cold Rush Remix)
EXTD=ID3G:  14 YEAR: 2004
EXTT0=
EXTT1=
EXTT2=
EXTT3=
EXTT4=
EXTT5=
EXTT6=
PLAYORDER=
